<svg width="2009" height="1642" viewBox="0 0 2009 1642" fill="none" xmlns="http://www.w3.org/2000/svg">
  <path
    d="M103 308C103 294.745 113.745 284 127 284H353C366.255 284 377 273.255 377 260V210C377 196.745 387.745 186 401 186H595C608.255 186 619 196.745 619 210V260C619 273.255 629.745 284 643 284H711C724.255 284 735 294.745 735 308V362C735 375.255 724.255 386 711 386H555C541.745 386 531 396.745 531 410V464C531 477.255 520.255 488 507 488H377C363.745 488 353 477.255 353 464V410C353 396.745 342.255 386 329 386H127C113.745 386 103 375.255 103 362V308Z"
    fill="#B9DDDA" fill-opacity="0.1"
    style="fill:#B9DDDA;fill:color(display-p3 0.7255 0.8667 0.8549);fill-opacity:0.1;"/>
  <path
    d="M1306 697C1306 683.745 1316.75 673 1330 673H1556C1569.25 673 1580 662.255 1580 649V599C1580 585.745 1590.75 575 1604 575H1798C1811.25 575 1822 585.745 1822 599V649C1822 662.255 1832.75 673 1846 673H1914C1927.25 673 1938 683.745 1938 697V751C1938 764.255 1927.25 775 1914 775H1736H1556H1330C1316.75 775 1306 764.255 1306 751V697Z"
    fill="#B9DDDA" fill-opacity="0.1"
    style="fill:#B9DDDA;fill:color(display-p3 0.7255 0.8667 0.8549);fill-opacity:0.1;"/>
  <path
    d="M220 1378C220 1364.75 230.745 1354 244 1354H470C483.255 1354 494 1343.25 494 1330V1280C494 1266.75 504.745 1256 518 1256H874.5C887.755 1256 898.5 1266.75 898.5 1280V1330C898.5 1343.25 887.755 1354 874.5 1354H809C795.745 1354 785 1364.75 785 1378V1432C785 1445.25 774.255 1456 761 1456H648H470H244C230.745 1456 220 1445.25 220 1432V1378Z"
    fill="#B9DDDA" fill-opacity="0.1"
    style="fill:#B9DDDA;fill:color(display-p3 0.7255 0.8667 0.8549);fill-opacity:0.1;"/>
</svg>
